<svg xmlns="http://www.w3.org/2000/svg" width="485.06191" height="323.29978" viewBox="0 0 485.06191 323.29978">
  <g>
    <polygon points="416.505 37.5 293.542 164.063 360.55 164.063 476.356 37.5 416.505 37.5" fill="#e8d3a2"/>
    <polygon points="358.5 0 296.888 0 416.086 126.559 485.062 126.559 358.5 0" fill="#f2dfb4"/>
    <polygon points="373.701 81.557 405.323 115.131 437.962 79.46 406.401 47.9 373.701 81.557" fill="#e1ca9c"/>
  </g>
  <path d="M0,129.211c0-9.7207,9.2168-14.7608,18.3613-14.7608,6.7686,0,13.4653,2.5918,16.4175,8.1367l-2.52,1.2959c-2.5205-4.6084-8.2808-6.625-14.0415-6.625-7.7046,0-15.4092,3.961-15.4092,11.9532v22.6826c0,8.1367,7.7768,12.0967,15.5532,12.0967,7.7769,0,15.6255-3.96,15.6255-12.0967v-7.7774H18.3613v-2.8076H36.7949v10.585c0,10.0088-9.2168,14.9765-18.4336,14.9765S0,161.90238,0,151.89358Zm48.6714,36.9394v-50.9805h2.8081v48.1719H76.9697v2.8086Zm34.2719-36.7949c0-9.9375,9.7212-14.9053,19.4419-14.9053s19.5137,4.9678,19.5137,14.9053v22.5381c0,9.9365-9.793,14.9765-19.5137,14.9765s-19.4419-5.04-19.4419-14.9765Zm2.8086,22.5381c0,8.1367,8.2808,12.1689,16.6333,12.1689s16.7056-4.0322,16.7056-12.1689v-22.5381c0-8.5693-8.4248-12.1689-16.7778-12.1689-8.2803.0712-16.5611,3.7441-16.5611,12.1689Zm68.2564,14.3291H134.9267v-51.0528h19.1534c7.561,0,13.8252,4.4649,13.8252,12.6016,0,5.1123-.9361,8.208-7.2725,11.3047,8.8569,2.5918,9.793,7.4883,9.7207,13.249C170.1377,162.54978,163.1533,166.22268,154.0083,166.22268Zm.0718-28.2988c6.4086,0,11.1611-3.0957,11.1611-10.0811,0-6.6963-4.9683-10.0811-11.1611-10.0811H137.7348v20.1622Zm0,25.4902c7.8491.1445,13.4653-2.5205,13.4653-11.1611,0-8.5684-5.1846-11.8809-13.4653-11.8086H137.7348v22.9697Zm63.5781,2.7363h-3.0244l-6.4087-17.7138H185.3994l-6.1929,17.7138h-3.0239l18.6494-50.9805h4.1045Zm-31.251-20.5215H207.289l-10.4409-28.3711Zm40.3189,20.5215v-50.9805h2.8081v48.1719h25.4902v2.8086Z"/>
  <path d="M11.88295,244.36523H5.90645v-50.9805h5.9765Zm45.1455-50.9805h6.0484v50.9805h-7.6328l-25.0582-40.3955v40.3955h-6.0483v-50.9805h6.4805l26.2104,42.1241Zm51.1905,0h6.0488v50.9805H106.635l-25.0581-40.3955v40.3955h-6.0484v-50.9805H82.009l26.21,42.1241Zm16.9887,15.2657c0-10.6573,10.1529-15.9854,20.3775-15.9854,10.1533,0,20.3779,5.3281,20.3779,15.9854v20.3779c0,10.6563-10.2246,16.0566-20.3779,16.0566-10.2246,0-20.3775-5.4003-20.3775-16.0566Zm5.9766,20.3056c0,6.6963,7.1284,10.0811,14.4009,10.0811,7.2006,0,14.4013-3.3848,14.4013-10.0811v-20.3056c0-7.0567-7.2724-10.0811-14.4731-10.0811-7.2007.0723-14.3291,3.168-14.3291,10.0811Zm45.935-35.5713,15.6973,44.1397,15.6255-44.1397h6.3364l-18.2895,50.9805h-7.417l-18.3613-50.9805Zm79.7066,50.9805h-6.3364l-5.9048-16.3457H224.927c-1.8721,5.3291-3.9605,11.0176-5.7603,16.3457H212.758l18.2896-50.9805h7.3447Zm-14.3296-22.3935c-2.8081-7.8487-4.896-13.9698-7.7764-22.1065-2.5923,7.4893-5.0405,14.4737-7.7768,22.1065Zm34.2715-22.5381v44.9316h-6.0484v-44.9316h-16.3452v-6.0489h38.7393v6.0489Zm30.4546,44.9316h-5.9766v-50.9805h5.9766Zm10.9428-35.7148c0-10.6573,10.1529-15.9854,20.378-15.9854,10.1528,0,20.3774,5.3281,20.3774,15.9854v20.3779c0,10.6563-10.2246,16.0566-20.3774,16.0566-10.2251,0-20.378-5.4003-20.378-16.0566Zm5.9766,20.3056c0,6.6963,7.1284,10.0811,14.4014,10.0811,7.2002,0,14.4009-3.3848,14.4009-10.0811v-20.3056c0-7.0567-7.2725-10.0811-14.4732-10.0811-7.2007.0723-14.3291,3.168-14.3291,10.0811Zm78.4814-35.5713h6.0484v50.9805h-7.6328l-25.0581-40.3955v40.3955h-6.0484v-50.9805h6.4805l26.2104,42.1241Z"/>
  <path d="M3.3115,295.64948H29.1616v2.8808H3.3115v21.2412H31.3217v2.8086H.5034v-50.9805H31.3217v2.8086H3.3115Zm72.0014,26.9306H71.9287l-15.1934-23.4023-15.2651,23.4023H38.0859l16.9936-25.418-16.8496-25.4902h3.168l15.3374,23.042,15.1934-23.042h3.3125l-16.8496,25.4902Zm6.2613-36.9394c0-9.7207,9.3608-14.7608,18.5776-14.7608,6.7686,0,13.5371,2.5196,16.4893,8.0645l-2.52,1.2959c-2.5923-4.3203-8.4249-6.5528-14.1856-6.5528-7.7046,0-15.5532,3.961-15.5532,11.9532v22.8984c0,7.9922,7.8486,11.9531,15.5532,11.9531,5.6885,0,11.5933-2.2324,14.2573-6.5527l2.4483,1.2236c-2.9522,5.4727-9.8648,8.1367-16.7056,8.1367-9.0727,0-18.3613-4.9677-18.3613-14.7607Zm48.2392,36.9394h-2.8081v-50.9805h2.8081v24.1221h31.1787v-24.1221h2.8082v50.9805h-2.8082v-24.0498H129.8134Zm84.5313,0h-3.0244l-6.4087-17.7138H182.0859l-6.1929,17.7138h-3.0239l18.6494-50.9805h4.1045Zm-31.251-20.5215h20.8818l-10.4409-28.3711Zm73.3696,16.9932v-47.4522h2.8081v50.9805H255.167L226.2207,275.92v46.6601h-2.8081v-50.9805h3.5283Zm15.9087-33.4111c0-9.7207,9.2168-14.7608,18.3614-14.7608,6.7685,0,13.4653,2.5918,16.4174,8.1367l-2.52,1.2959c-2.5205-4.6084-8.2807-6.625-14.0415-6.625-7.7046,0-15.4092,3.961-15.4092,11.9532v22.6826c0,8.1367,7.7769,12.0967,15.5533,12.0967,7.7768,0,15.6254-3.96,15.6254-12.0967v-7.7774H290.7334v-2.8076H309.167v10.585c0,10.0088-9.2168,14.9765-18.4336,14.9765s-18.3614-4.9677-18.3614-14.9765Zm51.4795,10.0088h25.8501v2.8808H323.8515v21.2412h28.0103v2.8086H321.0434v-50.9805h30.8184v2.8086H323.8515Z"/>
</svg>